<?xml version="1.0" encoding="UTF-8"?>
<!DOCTYPE svg PUBLIC "-//W3C//DTD SVG 1.1//EN" "http://www.w3.org/Graphics/SVG/1.1/DTD/svg11.dtd">
<!-- Creator: CorelDRAW X8 -->
<svg xmlns="http://www.w3.org/2000/svg" xml:space="preserve" width="661px" height="470px" version="1.1" style="shape-rendering:geometricPrecision; text-rendering:geometricPrecision; image-rendering:optimizeQuality; fill-rule:evenodd; clip-rule:evenodd"
viewBox="0 0 135647 96537"
 xmlns:xlink="http://www.w3.org/1999/xlink">
 <defs>
  <style type="text/css">
   <![CDATA[
    .fil0 {fill:none}
    .fil1 {fill:red}
   ]]>
  </style>
 </defs>
 <g id="Слой_x0020_1">
  <metadata id="CorelCorpID_0Corel-Layer"/>
  <rect class="fil0" width="135647" height="96537"/>
  <path class="fil1" d="M31867 72952l0 -42024 71914 0 0 42024 -71914 0zm52392 -30202l0 4099 12044 0 0 -4099 -12044 0zm-39603 3872l0 5666 3826 0 0 -5666 5666 0 0 -3826 -5666 0 0 -5666 -3826 0 0 5666 -5666 0 0 3826 5666 0zm-9800 -21320l-8616 0 0 53276 83167 0 0 -53276 -8798 0 0 -6858 -21627 0 0 6638 0 148 0 72 -22499 0 0 -148 0 -6710 -21627 0 0 6638 0 220z"/>
 </g>
</svg>
