<?xml version="1.0" encoding="UTF-8"?>
<!DOCTYPE svg PUBLIC "-//W3C//DTD SVG 1.1//EN" "http://www.w3.org/Graphics/SVG/1.1/DTD/svg11.dtd">
<!-- Creator: CorelDRAW X8 -->
<svg xmlns="http://www.w3.org/2000/svg" xml:space="preserve" width="661px" height="470px" version="1.1" style="shape-rendering:geometricPrecision; text-rendering:geometricPrecision; image-rendering:optimizeQuality; fill-rule:evenodd; clip-rule:evenodd"
viewBox="0 0 1762 1254"
 xmlns:xlink="http://www.w3.org/1999/xlink">
 <defs>
  <style type="text/css">
   <![CDATA[
    .fil0 {fill:none}
    .fil1 {fill:red}
   ]]>
  </style>
 </defs>
 <g id="Слой_x0020_1">
  <metadata id="CorelCorpID_0Corel-Layer"/>
  <rect class="fil0" width="1762" height="1254"/>
  <path class="fil1" d="M495 781l-77 0c-9,0 -16,-7 -16,-16l0 -94c0,-9 7,-16 16,-16l77 0 0 126zm359 -156l-26 -264 0 -121 107 0 0 121 -25 264 -56 0zm-21 133l0 -99 99 0 0 99 -99 0zm-219 191l0 0c-27,-8 -47,-34 -47,-63l0 -313c0,-30 20,-55 47,-64l0 440zm48 4l0 -1 0 -446 44 -68 -104 0c-59,0 -107,49 -107,108l0 53 -98 0c-27,0 -49,23 -49,50l0 139c0,27 22,49 49,49l98 0 0 76c0,59 48,108 107,108l603 0c59,0 108,-49 108,-108l0 -367c0,-59 -49,-108 -108,-108l-58 0 -46 68 0 446 -1 1 -438 0zm486 -1l1 1 24 0c37,0 67,-31 67,-67l0 -313c0,-36 -30,-67 -67,-67l-25 0 0 446z"/>
 </g>
</svg>
