<?xml version="1.0" encoding="UTF-8"?>
<!DOCTYPE svg PUBLIC "-//W3C//DTD SVG 1.1//EN" "http://www.w3.org/Graphics/SVG/1.1/DTD/svg11.dtd">
<!-- Creator: CorelDRAW X8 -->
<svg xmlns="http://www.w3.org/2000/svg" xml:space="preserve" width="661px" height="470px" version="1.1" style="shape-rendering:geometricPrecision; text-rendering:geometricPrecision; image-rendering:optimizeQuality; fill-rule:evenodd; clip-rule:evenodd"
viewBox="0 0 1069 761"
 xmlns:xlink="http://www.w3.org/1999/xlink">
 <defs>
  <style type="text/css">
   <![CDATA[
    .fil0 {fill:none}
    .fil1 {fill:#42db29}
   ]]>
  </style>
 </defs>
 <g id="Слой_x0020_1">
  <metadata id="CorelCorpID_0Corel-Layer"/>
  <rect class="fil0" width="1069" height="761"/>
  <path class="fil1" d="M425 358c6,15 16,29 29,42 16,17 38,32 62,42 25,9 52,13 80,15 28,2 58,3 75,1 16,-1 21,-3 23,-40l110 0c13,0 25,-11 25,-25l0 -9c0,-13 -12,-24 -25,-24l-108 0c1,-21 1,-43 1,-64l107 0c13,0 25,-11 25,-25l0 -9c0,-13 -12,-24 -25,-24l-108 0c-2,-41 -5,-46 -19,-48 -14,-2 -38,-3 -64,-2 -26,0 -52,2 -78,9 -26,8 -51,22 -70,36 -17,13 -28,26 -36,41 -14,1 -27,3 -40,5 -22,3 -41,8 -57,15 -17,7 -31,16 -43,26 -11,10 -19,22 -26,36 -7,13 -13,29 -16,48 -4,19 -6,40 -6,69 -1,28 0,64 0,82l0 18 15 0 58 0 14 0 0 -21c0,-22 -1,-65 0,-94 1,-29 2,-43 8,-56 6,-13 16,-24 32,-31 15,-8 36,-12 53,-13l4 0z"/>
 </g>
</svg>
