<?xml version="1.0" encoding="UTF-8"?>
<!DOCTYPE svg PUBLIC "-//W3C//DTD SVG 1.1//EN" "http://www.w3.org/Graphics/SVG/1.1/DTD/svg11.dtd">
<!-- Creator: CorelDRAW X8 -->
<svg xmlns="http://www.w3.org/2000/svg" xml:space="preserve" width="661px" height="470px" version="1.1" style="shape-rendering:geometricPrecision; text-rendering:geometricPrecision; image-rendering:optimizeQuality; fill-rule:evenodd; clip-rule:evenodd"
viewBox="0 0 1283 913"
 xmlns:xlink="http://www.w3.org/1999/xlink">
 <defs>
  <style type="text/css">
   <![CDATA[
    .fil0 {fill:none}
    .fil1 {fill:#FF6600}
   ]]>
  </style>
 </defs>
 <g id="Слой_x0020_1">
  <metadata id="CorelCorpID_0Corel-Layer"/>
  <rect class="fil0" width="1283" height="913"/>
  <path class="fil1" d="M295 496l32 0 0 94c0,30 -4,68 23,88 12,8 24,9 38,9l75 0c2,0 4,0 6,0l2 2c17,11 34,22 51,34 29,18 53,15 86,16 67,1 133,2 200,2 39,-1 84,3 96,-45l1 -3c9,18 25,30 45,33 22,3 44,-8 56,-27 10,-16 11,-34 12,-53 2,-29 3,-59 3,-89 0,-43 -1,-87 -3,-130 0,-20 -1,-44 -6,-64 -5,-19 -16,-36 -34,-46 -25,-12 -52,-4 -70,14 -4,4 -7,8 -10,11 -11,-29 -34,-33 -63,-33 -19,0 -39,0 -58,0 0,-7 0,-13 0,-19 -1,-13 -5,-25 -14,-35 -13,-14 -29,-16 -47,-16 -9,0 -27,0 -40,-1 -3,-12 -10,-21 -21,-27l86 0 0 -37 -253 0 0 37 96 0c-12,7 -21,17 -25,31l-55 0c-25,0 -43,1 -58,24l-5 8 -56 0c-13,0 -23,1 -34,9 -29,19 -24,58 -24,88l0 81 -32 0 0 -166 -37 0 0 389 37 0 0 -179zm74 94l0 -219c0,-54 0,-54 16,-54l64 0c16,0 16,0 19,-6 3,-5 10,-16 14,-21 3,-6 4,-6 22,-6l75 0c18,0 18,0 18,-5 0,-5 -1,-16 1,-22 3,-7 7,-10 14,-11 6,-1 14,0 18,1 5,0 6,0 6,6 1,6 1,17 16,23 16,5 47,5 63,6 17,0 18,0 19,11 1,10 0,30 1,42 0,11 2,14 22,15 20,2 58,2 78,2 20,0 21,0 24,7 3,8 6,24 9,32 3,9 5,10 11,10 7,1 18,0 25,0 6,0 7,-1 12,-9 5,-7 14,-22 22,-30 8,-8 15,-9 21,-7 5,3 9,10 12,19 2,10 4,22 5,55 1,33 2,87 2,128 0,41 -1,68 -2,87 -1,18 -3,27 -6,33 -4,5 -9,8 -15,7 -5,-1 -10,-5 -14,-13 -3,-8 -4,-20 -6,-26 -1,-7 -2,-8 -13,-8 -11,-1 -31,-1 -41,0 -10,1 -10,3 -12,13 -1,9 -4,27 -6,36 -3,10 -5,12 -55,12 -51,0 -150,-1 -199,-2 -50,-1 -51,-1 -64,-9 -12,-9 -38,-25 -51,-34 -12,-8 -12,-8 -31,-8l-75 0c-19,0 -19,0 -19,-55z"/>
 </g>
</svg>
