<?xml version="1.0" encoding="UTF-8"?>
<!DOCTYPE svg PUBLIC "-//W3C//DTD SVG 1.1//EN" "http://www.w3.org/Graphics/SVG/1.1/DTD/svg11.dtd">
<!-- Creator: CorelDRAW X8 -->
<svg xmlns="http://www.w3.org/2000/svg" xml:space="preserve" width="661px" height="470px" version="1.1" style="shape-rendering:geometricPrecision; text-rendering:geometricPrecision; image-rendering:optimizeQuality; fill-rule:evenodd; clip-rule:evenodd"
viewBox="0 0 2811 2001"
 xmlns:xlink="http://www.w3.org/1999/xlink">
 <defs>
  <style type="text/css">
   <![CDATA[
    .fil0 {fill:none}
    .fil1 {fill:red}
   ]]>
  </style>
 </defs>
 <g id="Слой_x0020_1">
  <metadata id="CorelCorpID_0Corel-Layer"/>
  <rect class="fil0" width="2811" height="2001"/>
  <path class="fil1" d="M1494 1174c32,27 52,67 52,111 0,81 -66,147 -147,147 -81,0 -147,-66 -147,-147 0,-43 19,-82 49,-109l0 -697c0,-53 44,-97 97,-97l0 0c53,0 96,44 96,97l0 85 107 0c20,0 37,17 37,37l0 0c0,21 -17,38 -37,38l-107 0 0 102 105 0c21,0 38,17 38,37l0 0c0,21 -17,38 -38,38l-105 0 0 128 107 0c20,0 37,17 37,37l0 0c0,21 -17,38 -37,38l-107 0 0 155zm-778 331c19,15 51,29 86,50 35,21 71,48 105,60 34,13 66,11 97,-2 30,-13 60,-37 88,-54 28,-16 54,-25 83,-23 30,2 64,15 101,34 37,18 77,43 116,53 40,10 78,6 116,-12 37,-18 74,-49 105,-63 32,-14 59,-11 86,4 27,14 53,40 86,56 33,16 71,22 107,14 36,-8 70,-29 96,-46 26,-17 44,-29 63,-33 19,-4 39,1 57,-8 17,-9 31,-32 33,-53 1,-21 -10,-41 -31,-50 -21,-9 -50,-8 -83,6 -32,14 -66,41 -93,56 -27,16 -46,19 -71,14 -25,-5 -56,-20 -81,-34 -25,-15 -44,-31 -67,-40 -24,-10 -52,-14 -78,-8 -27,7 -52,23 -77,40 -26,18 -51,36 -76,47 -25,11 -49,15 -77,8 -27,-8 -58,-26 -86,-43 -27,-16 -52,-32 -75,-40 -23,-9 -43,-11 -67,-7 -24,5 -52,15 -81,29 -29,14 -60,31 -90,42 -29,11 -58,16 -95,3 -36,-13 -80,-43 -113,-61 -34,-17 -56,-21 -73,-16 -17,5 -30,18 -33,33 -3,14 2,29 22,44zm1334 -153c-26,12 -60,37 -99,57 -38,21 -83,37 -121,29 -37,-8 -69,-41 -94,-61 -24,-20 -41,-28 -56,-32 -15,-3 -28,-3 -38,-16 -11,-13 -19,-39 -18,-58 1,-18 11,-28 23,-33 11,-5 24,-4 43,3 20,6 47,19 69,36 22,17 39,38 60,48 21,11 45,11 71,-2 27,-13 57,-39 83,-58 25,-19 46,-30 68,-33 22,-4 45,1 62,13 17,11 27,29 28,47 1,18 -7,35 -21,43 -14,7 -33,6 -60,17zm-1299 0c26,12 60,37 99,57 39,21 83,37 121,29 38,-8 70,-41 94,-61 24,-20 42,-28 57,-32 15,-3 27,-3 38,-16 10,-13 19,-39 18,-58 -1,-18 -12,-28 -23,-33 -12,-5 -24,-4 -44,3 -20,6 -46,19 -69,36 -22,17 -39,38 -60,48 -20,11 -44,11 -71,-2 -27,-13 -57,-39 -82,-58 -26,-19 -47,-30 -69,-33 -22,-4 -45,1 -62,13 -17,11 -27,29 -28,47 -1,18 8,35 22,43 13,7 33,6 59,17z"/>
 </g>
</svg>
