<?xml version="1.0" encoding="UTF-8"?>
<!DOCTYPE svg PUBLIC "-//W3C//DTD SVG 1.1//EN" "http://www.w3.org/Graphics/SVG/1.1/DTD/svg11.dtd">
<!-- Creator: CorelDRAW X8 -->
<svg xmlns="http://www.w3.org/2000/svg" xml:space="preserve" width="661px" height="470px" version="1.1" style="shape-rendering:geometricPrecision; text-rendering:geometricPrecision; image-rendering:optimizeQuality; fill-rule:evenodd; clip-rule:evenodd"
viewBox="0 0 1452 1034"
 xmlns:xlink="http://www.w3.org/1999/xlink">
 <defs>
  <style type="text/css">
   <![CDATA[
    .fil0 {fill:none}
    .fil1 {fill:#42db29}
   ]]>
  </style>
 </defs>
 <g id="Слой_x0020_1">
  <metadata id="CorelCorpID_0Corel-Layer"/>
  <rect class="fil0" width="1452" height="1034"/>
  <polygon class="fil1" points="315,195 400,270 376,294 483,278 501,170 480,191 398,115 "/>
  <path class="fil1" d="M725 197c-176,0 -319,142 -319,319 0,176 143,319 319,319 176,0 319,-143 319,-319 0,-177 -143,-319 -319,-319zm-178 118c41,-37 94,-61 153,-67l0 41c0,15 11,27 26,27 15,0 27,-12 27,-27l0 -40c58,5 111,30 152,67 -2,1 -3,2 -4,3l-32 32c-10,10 -10,27 0,37 11,11 27,11 38,0l31 -31 2 -2c29,38 47,84 52,133l-40 0c-15,0 -27,12 -27,27 0,14 12,26 27,26l40 0c-4,50 -22,95 -50,133l-26 -27c-10,-10 -27,-10 -38,0 -10,11 -10,28 0,38l29 28c-40,36 -90,61 -145,69l0 -35c0,-15 -12,-27 -27,-27 -14,0 -26,12 -26,27l0 36c-59,-3 -112,-25 -155,-60l3 -2 31 -32c10,-10 10,-27 0,-37 -10,-11 -27,-11 -38,0l-31 31 -2 2c-32,-39 -53,-88 -59,-141l41 0c14,0 26,-12 26,-27 0,-14 -12,-26 -26,-26l-41 0c5,-51 24,-98 53,-137l30 30c11,11 27,11 38,0 10,-10 10,-27 0,-37l-32 -32 0 0z"/>
  <path class="fil1" d="M664 428c-17,-14 -24,-20 -32,-23 -8,-4 -18,-4 -25,-1 -8,4 -14,12 -14,21 -1,9 3,18 9,26 6,9 14,15 32,29 10,9 24,20 39,32 0,2 0,4 0,6 0,33 26,59 59,59 32,0 58,-26 58,-59 0,-32 -26,-59 -58,-59 -9,0 -18,2 -25,6l-43 -37z"/>
 </g>
</svg>
