<?xml version="1.0" encoding="UTF-8"?>
<!DOCTYPE svg PUBLIC "-//W3C//DTD SVG 1.1//EN" "http://www.w3.org/Graphics/SVG/1.1/DTD/svg11.dtd">
<!-- Creator: CorelDRAW X8 -->
<svg xmlns="http://www.w3.org/2000/svg" xml:space="preserve" width="661px" height="470px" version="1.1" style="shape-rendering:geometricPrecision; text-rendering:geometricPrecision; image-rendering:optimizeQuality; fill-rule:evenodd; clip-rule:evenodd"
viewBox="0 0 1673 1191"
 xmlns:xlink="http://www.w3.org/1999/xlink">
 <defs>
  <style type="text/css">
   <![CDATA[
    .fil0 {fill:none}
    .fil1 {fill:red}
   ]]>
  </style>
 </defs>
 <g id="Слой_x0020_1">
  <metadata id="CorelCorpID_0Corel-Layer"/>
  <rect class="fil0" width="1673" height="1191"/>
  <path class="fil1" d="M731 477l-48 74 125 0 -97 257 248 -331 18 -24 -148 0 12 -41 52 -185 -120 185 -42 65zm353 426l1 1 23 0c35,0 64,-29 64,-64l0 -299c0,-35 -29,-64 -64,-64l-24 0 0 426zm-465 1l0 -1 0 -426 42 -65 -99 0c-57,0 -103,46 -103,103l0 51 -93 0c-26,0 -47,21 -47,47l0 133c0,26 21,47 47,47l93 0 0 73c0,57 46,103 103,103l576 0c57,0 103,-46 103,-103l0 -351c0,-57 -46,-103 -103,-103l-55 0 -44 65 0 426 -1 1 -419 0zm-45 -4l-1 1c-26,-8 -45,-33 -45,-61l0 -299c0,-28 19,-53 46,-61l0 420zm-115 -160l-73 0c-8,0 -15,-7 -15,-15l0 -90c0,-9 7,-16 15,-16l73 0 0 121z"/>
 </g>
</svg>
