<?xml version="1.0" encoding="UTF-8"?>
<!DOCTYPE svg PUBLIC "-//W3C//DTD SVG 1.1//EN" "http://www.w3.org/Graphics/SVG/1.1/DTD/svg11.dtd">
<!-- Creator: CorelDRAW X8 -->
<svg xmlns="http://www.w3.org/2000/svg" xml:space="preserve" width="661px" height="470px" version="1.1" style="shape-rendering:geometricPrecision; text-rendering:geometricPrecision; image-rendering:optimizeQuality; fill-rule:evenodd; clip-rule:evenodd"
viewBox="0 0 2403 1710"
 xmlns:xlink="http://www.w3.org/1999/xlink">
 <defs>
  <style type="text/css">
   <![CDATA[
    .fil0 {fill:none}
    .fil1 {fill:red}
   ]]>
  </style>
 </defs>
 <g id="Слой_x0020_1">
  <metadata id="CorelCorpID_0Corel-Layer"/>
  <rect class="fil0" width="2403" height="1710"/>
  <path class="fil1" d="M960 1296c132,1 388,1 515,1 128,0 128,0 136,-18 8,-17 24,-52 34,-73 11,-20 17,-27 47,-30 29,-3 82,-3 109,2 28,5 29,15 30,29 0,15 -1,33 -11,42 -11,9 -32,9 -52,10 -20,0 -39,1 -52,9 -14,9 -22,24 -29,43 -7,19 -13,41 -19,54 -6,13 -12,16 -147,18 -134,2 -398,2 -549,2 -151,0 -189,0 -214,-3 -24,-3 -36,-10 -47,-30 -12,-19 -24,-52 -32,-70 -8,-18 -11,-21 -28,-22 -17,-2 -47,-2 -64,-5 -16,-4 -19,-11 -23,-26 -4,-15 -9,-37 -10,-51 -1,-13 3,-19 31,-22 29,-2 83,-2 113,1 31,3 37,10 47,32 9,23 20,61 31,81 11,20 23,22 33,24 10,1 18,2 151,2zm611 -969c18,8 35,24 47,42 13,18 19,38 19,56 0,18 -6,35 -18,51 -11,16 -27,32 -40,49 -14,17 -26,35 -25,52 2,17 18,33 37,50 19,18 41,39 53,60 13,21 14,43 9,62 -6,18 -19,34 -32,43 -12,8 -24,10 -38,9 -13,-2 -28,-6 -31,-17 -3,-11 6,-29 10,-45 4,-17 3,-32 -6,-46 -9,-14 -25,-26 -44,-41 -19,-16 -41,-35 -54,-52 -12,-16 -16,-30 -12,-46 3,-17 14,-36 32,-55 19,-19 46,-37 61,-51 15,-15 19,-25 10,-39 -8,-14 -28,-33 -35,-49 -7,-16 -2,-29 9,-36 12,-6 30,-5 48,3zm-385 0c18,8 35,24 47,42 12,18 19,38 19,56 0,18 -7,35 -18,51 -11,16 -27,32 -41,49 -14,17 -26,35 -24,52 2,17 17,33 36,50 19,18 42,39 54,60 12,21 14,43 8,62 -5,18 -18,34 -31,43 -12,8 -25,10 -38,9 -14,-2 -28,-6 -31,-17 -3,-11 5,-29 9,-45 4,-17 3,-32 -5,-46 -9,-14 -26,-26 -45,-41 -19,-16 -40,-35 -53,-52 -12,-16 -16,-30 -12,-46 3,-17 13,-36 32,-55 19,-19 46,-37 61,-51 15,-15 18,-25 10,-39 -8,-14 -28,-33 -35,-49 -8,-16 -3,-29 9,-36 12,-6 30,-5 48,3zm-382 0c18,8 35,24 48,42 12,18 19,38 19,56 0,18 -7,35 -19,51 -11,16 -26,32 -40,49 -14,17 -26,35 -25,52 2,17 18,33 37,50 19,18 41,39 54,60 12,21 14,43 8,62 -6,18 -19,34 -31,43 -13,8 -25,10 -38,9 -14,-2 -29,-6 -32,-17 -3,-11 6,-29 10,-45 4,-17 3,-32 -6,-46 -8,-14 -25,-26 -44,-41 -19,-16 -41,-35 -53,-52 -13,-16 -16,-30 -13,-46 4,-17 14,-36 33,-55 18,-19 45,-37 60,-51 15,-15 19,-25 11,-39 -9,-14 -28,-33 -36,-49 -7,-16 -2,-29 10,-36 11,-6 30,-5 47,3zm156 616c132,0 388,0 515,0 128,0 128,0 136,17 8,18 24,53 34,73 11,21 17,27 47,31 29,3 82,3 109,-2 28,-5 29,-15 30,-30 0,-14 -1,-32 -11,-41 -11,-10 -32,-10 -52,-10 -20,0 -39,-1 -52,-10 -14,-8 -22,-24 -29,-42 -7,-19 -13,-41 -19,-54 -6,-13 -12,-17 -147,-18 -134,-2 -398,-2 -549,-2 -151,0 -189,0 -214,3 -24,3 -36,10 -47,29 -12,20 -24,53 -32,71 -8,18 -11,21 -28,22 -17,1 -47,1 -64,5 -16,4 -19,11 -23,26 -4,14 -9,36 -10,50 -1,14 3,20 31,22 29,3 83,3 113,0 31,-3 37,-10 47,-32 9,-23 20,-61 31,-82 11,-20 23,-22 33,-23 10,-1 18,-2 151,-3z"/>
 </g>
</svg>
