<?xml version="1.0" encoding="UTF-8"?>
<!DOCTYPE svg PUBLIC "-//W3C//DTD SVG 1.1//EN" "http://www.w3.org/Graphics/SVG/1.1/DTD/svg11.dtd">
<!-- Creator: CorelDRAW X8 -->
<svg xmlns="http://www.w3.org/2000/svg" xml:space="preserve" width="661px" height="470px" version="1.1" style="shape-rendering:geometricPrecision; text-rendering:geometricPrecision; image-rendering:optimizeQuality; fill-rule:evenodd; clip-rule:evenodd"
viewBox="0 0 3774 2686"
 xmlns:xlink="http://www.w3.org/1999/xlink">
 <defs>
  <style type="text/css">
   <![CDATA[
    .fil0 {fill:none}
    .fil1 {fill:#FF6600}
   ]]>
  </style>
 </defs>
 <g id="Слой_x0020_1">
  <metadata id="CorelCorpID_0Corel-Layer"/>
  <rect class="fil0" width="3774" height="2686"/>
  <path class="fil1" d="M1083 1311c0,381 265,700 620,783l0 -128c-286,-80 -496,-343 -496,-655 0,-376 304,-681 680,-681 376,0 681,305 681,681 0,268 -156,500 -381,611l-58 -136 -116 275 284 119 -62 -144c270,-130 456,-406 456,-725 0,-444 -360,-805 -804,-805 -444,0 -804,361 -804,805zm788 197l-37 -383 0 -176 155 0 0 176 -37 383 -81 0zm-31 193l0 -144 144 0 0 144 -144 0z"/>
 </g>
</svg>
