<?xml version="1.0" encoding="UTF-8"?>
<!DOCTYPE svg PUBLIC "-//W3C//DTD SVG 1.1//EN" "http://www.w3.org/Graphics/SVG/1.1/DTD/svg11.dtd">
<!-- Creator: CorelDRAW X8 -->
<svg xmlns="http://www.w3.org/2000/svg" xml:space="preserve" width="661px" height="470px" version="1.1" style="shape-rendering:geometricPrecision; text-rendering:geometricPrecision; image-rendering:optimizeQuality; fill-rule:evenodd; clip-rule:evenodd"
viewBox="0 0 2591 1844"
 xmlns:xlink="http://www.w3.org/1999/xlink">
 <defs>
  <style type="text/css">
   <![CDATA[
    .fil0 {fill:none}
    .fil1 {fill:red}
   ]]>
  </style>
 </defs>
 <g id="Слой_x0020_1">
  <metadata id="CorelCorpID_0Corel-Layer"/>
  <rect class="fil0" width="2591" height="1844"/>
  <path class="fil1" d="M1040 1252c43,34 51,96 17,140 -33,44 -96,52 -139,18 -44,-34 -52,-96 -18,-140 33,-44 96,-52 140,-18zm559 -560c53,1 105,-21 140,-66 57,-74 44,-181 -31,-238 -74,-58 -180,-44 -238,30 -34,45 -43,101 -29,152l-28 -23c-34,-26 -84,-20 -110,14l-158 205c-18,23 -21,53 -10,79 -9,4 -17,10 -23,18l-146 189c-23,30 -18,72 12,95l20 15c-57,-6 -116,16 -154,65 -57,74 -43,181 31,238 74,58 181,44 238,-30 38,-49 45,-111 24,-165l17 13c30,23 72,18 95,-12l146 -189c6,-8 11,-18 12,-27 27,3 55,-7 72,-30l159 -205c26,-34 20,-83 -14,-109l-25 -19zm-160 222c-14,18 -41,22 -59,7l-111 -85c-18,-15 -22,-41 -7,-60l106 -137c14,-19 41,-22 60,-8l110 86c19,14 22,41 8,59l-107 138zm244 -331c-33,44 -96,52 -140,18 -43,-34 -51,-96 -17,-140 33,-43 96,-51 139,-18 44,34 52,97 18,140z"/>
 </g>
</svg>
