<?xml version="1.0" encoding="UTF-8"?>
<!DOCTYPE svg PUBLIC "-//W3C//DTD SVG 1.1//EN" "http://www.w3.org/Graphics/SVG/1.1/DTD/svg11.dtd">
<!-- Creator: CorelDRAW X8 -->
<svg xmlns="http://www.w3.org/2000/svg" xml:space="preserve" width="661px" height="470px" version="1.1" style="shape-rendering:geometricPrecision; text-rendering:geometricPrecision; image-rendering:optimizeQuality; fill-rule:evenodd; clip-rule:evenodd"
viewBox="0 0 1149 818"
 xmlns:xlink="http://www.w3.org/1999/xlink">
 <defs>
  <style type="text/css">
   <![CDATA[
    .fil0 {fill:none}
    .fil1 {fill:red}
   ]]>
  </style>
 </defs>
 <g id="Слой_x0020_1">
  <metadata id="CorelCorpID_0Corel-Layer"/>
  <rect class="fil0" width="1149" height="818"/>
  <polygon class="fil1" points="567,497 652,497 652,427 688,427 609,341 523,427 567,427 "/>
  <polygon class="fil1" points="567,536 652,536 652,605 688,605 609,691 523,605 567,605 "/>
  <path class="fil1" d="M241 397c23,-1 65,-3 88,-4 23,-1 25,-2 55,-23 31,-22 89,-64 120,-86 32,-21 38,-22 77,-23 39,0 112,0 149,1 38,1 40,3 58,24 17,22 49,63 68,85 19,22 23,23 35,24 12,1 31,1 42,2 10,1 13,3 14,19 1,17 1,48 -2,64 -2,16 -6,17 -32,18 -10,-34 -42,-59 -80,-59 -39,0 -72,26 -81,61 -6,0 -11,0 -16,0 -16,1 -34,1 -52,1l0 40c17,0 35,0 52,-1 5,0 10,0 15,0 8,38 41,67 82,67 41,0 75,-30 83,-69 19,-1 39,-2 54,-17 9,-10 13,-22 15,-35 3,-21 3,-51 2,-72 -2,-33 -17,-54 -51,-57 -13,-1 -27,-1 -40,-2 -3,-3 -7,-7 -10,-10 -23,-27 -45,-56 -67,-84 -28,-35 -44,-38 -88,-39 -50,-1 -100,-1 -150,-1 -47,1 -61,4 -99,30 -41,28 -81,58 -121,86 -3,3 -19,14 -22,15 -3,1 -9,1 -12,1 -30,1 -59,2 -89,4 -24,1 -45,2 -61,24 -11,13 -16,32 -18,48 -3,20 -4,44 1,63 8,31 29,46 58,50 9,37 42,65 82,65 40,0 74,-28 82,-66 14,0 28,0 42,0 37,0 73,0 110,0l0 -40c-42,0 -80,0 -110,0 -17,0 -31,0 -43,0 -9,-36 -42,-62 -81,-62 -39,0 -72,26 -82,62 -12,-3 -17,-9 -19,-19 -3,-13 -3,-32 -1,-47 2,-15 6,-25 11,-30 4,-6 8,-7 32,-8zm637 126c0,6 -1,11 -3,16 -7,17 -23,29 -42,29 -19,0 -35,-12 -42,-28 -2,-5 -3,-11 -3,-17 0,-9 2,-16 6,-23 8,-13 22,-22 39,-22 16,0 30,8 38,21 4,7 7,15 7,24zm-537 18c-7,16 -23,27 -41,27 -17,0 -32,-10 -40,-24 -3,-6 -5,-13 -5,-21 0,-7 1,-13 4,-19 7,-16 23,-26 41,-26 17,0 32,9 39,23 4,6 6,14 6,22 0,6 -1,12 -4,18z"/>
 </g>
</svg>
