<?xml version="1.0" encoding="UTF-8"?>
<!DOCTYPE svg PUBLIC "-//W3C//DTD SVG 1.1//EN" "http://www.w3.org/Graphics/SVG/1.1/DTD/svg11.dtd">
<!-- Creator: CorelDRAW X8 -->
<svg xmlns="http://www.w3.org/2000/svg" xml:space="preserve" width="661px" height="470px" version="1.1" style="shape-rendering:geometricPrecision; text-rendering:geometricPrecision; image-rendering:optimizeQuality; fill-rule:evenodd; clip-rule:evenodd"
viewBox="0 0 1391 990"
 xmlns:xlink="http://www.w3.org/1999/xlink">
 <defs>
  <style type="text/css">
   <![CDATA[
    .fil0 {fill:none}
    .fil1 {fill:#FF6600}
   ]]>
  </style>
 </defs>
 <g id="Слой_x0020_1">
  <metadata id="CorelCorpID_0Corel-Layer"/>
  <rect class="fil0" width="1391" height="990"/>
  <path class="fil1" d="M340 574c20,-13 57,-36 76,-48 20,-12 22,-14 38,-48 16,-35 47,-102 64,-137 18,-35 22,-39 57,-59 34,-20 99,-56 133,-75 34,-18 37,-17 63,-7 27,11 77,31 104,41 27,10 33,9 44,4 11,-5 28,-15 38,-19 10,-5 12,-4 22,10 9,14 25,42 31,58 5,15 2,18 -20,32 -27,-26 -68,-32 -102,-13 -34,20 -50,59 -41,96 -4,3 -9,5 -14,8 -14,8 -30,17 -46,26l0 0 -134 76 0 0 -46 26 -8 5 -43 24c-16,9 -28,16 -39,22 -26,-27 -69,-34 -103,-14 -35,19 -51,60 -41,97 -13,3 -20,0 -27,-8 -10,-9 -19,-27 -25,-41 -5,-15 -7,-26 -6,-33 1,-7 5,-10 25,-23zm493 -109l20 -12c5,-3 9,-5 13,-8 27,30 71,38 107,18 37,-21 52,-64 39,-103 18,-10 34,-21 39,-43 4,-13 2,-25 -3,-38 -8,-21 -23,-47 -35,-66 -18,-28 -42,-39 -74,-25 -12,6 -24,13 -36,19 -5,-1 -11,-3 -14,-4 -34,-13 -68,-28 -102,-41 -43,-17 -59,-12 -98,9 -46,24 -91,50 -135,76 -41,23 -51,33 -73,76 -22,45 -42,92 -64,137 -2,4 -10,22 -13,25 -2,2 -7,5 -9,6 -26,17 -52,33 -77,49 -21,13 -40,25 -43,52 -3,17 2,36 8,52 7,19 19,41 33,56 22,23 49,25 77,15 26,29 70,37 105,16 36,-20 52,-62 40,-100 13,-7 25,-14 38,-21l43 -24 17 -10 197 -111 0 0zm138 -100c3,6 5,11 5,17 3,18 -6,37 -23,46 -16,10 -36,8 -50,-3 -5,-4 -9,-9 -12,-14 -5,-8 -6,-16 -6,-23 0,-16 8,-32 23,-40 15,-8 32,-8 45,0 7,4 14,10 18,17zm-469 287c2,18 -7,35 -23,45 -16,8 -34,7 -48,-1 -6,-4 -11,-10 -15,-17 -4,-6 -5,-12 -6,-19 -2,-17 7,-34 23,-44 15,-8 33,-7 47,1 7,4 12,10 16,17 3,6 5,12 6,18z"/>
  <rect class="fil1" transform="matrix(0.80044 -0.457541 0.457541 0.80044 339.665 818.32)" width="960.361" height="39.4668" rx="20" ry="20"/>
 </g>
</svg>
